# xmcd
#
# Track frame offsets: 
#        182
#        17195
#        49382
#        74945
#        96382
#        117020
#        131270
#        146770
#        161107
#        172182
#        194082
#        207282
#        226657
#
# Disc length: 3360 seconds
#
# Revision: 4
# Processed by: cddbd v1.5.2PL0 Copyright (c) Steve Scherf et al.
# Submitted via: ExactAudioCopy v1.0b3
#
DISCID=cb0d1e0d
DTITLE=Clarence 'Gatemouth' Brown - Long Way Home
DYEAR=1996
DGENRE=Blues
TTITLE0=Blues Power
TTITLE1=Somebody Else
TTITLE2=Dockside Boogie
TTITLE3=I'll Be There (If You Ever Want Me)
TTITLE4=Here I Go Again
TTITLE5=Deep, Deep Water
TTITLE6=The Blues Walk
TTITLE7=Mean And Evil
TTITLE8=Underhand Boogie
TTITLE9=Don't Think Twice
TTITLE10=Tobacco Road
TTITLE11=Don't Cry Sister
TTITLE12=Long Way Home
EXTD=
EXTT0=
EXTT1=
EXTT2=
EXTT3=
EXTT4=
EXTT5=
EXTT6=
EXTT7=
EXTT8=
EXTT9=
EXTT10=
EXTT11=
EXTT12=
PLAYORDER=
